# Blender 3.4.1
# www.blender.org
mtllib sign.mtl
o Cube
v -0.426291 7.000000 -0.363053
v -0.426291 0.000000 -0.363053
v 0.426291 7.000000 -0.363053
v 0.426291 0.000000 -0.363053
v -0.426291 7.000000 0.363053
v -0.426291 0.000000 0.363053
v 0.426291 7.000000 0.363053
v 0.426291 0.000000 0.363053
v -5.925451 7.000000 0.611592
v 5.925451 7.000000 0.611591
v -5.925451 7.000000 -0.611591
v -5.925451 14.000000 -0.611591
v 5.925451 14.000000 0.611591
v 5.925451 14.000000 -0.611592
v 5.925451 7.000000 -0.611592
v -5.925451 14.000000 0.611592
vn -0.0000 -1.0000 -0.0000
vn -1.0000 -0.0000 -0.0000
vn -0.0000 -0.0000 -1.0000
vn -0.0000 1.0000 -0.0000
vn -0.0000 -0.0000 1.0000
vn 1.0000 -0.0000 -0.0000
vt 0.577642 0.638735
vt 0.222744 0.979252
vt 0.500824 0.979252
vt 0.222744 0.638735
vt 0.619138 0.638735
vt 0.500824 0.638735
vt 0.577642 0.680209
vt 0.388685 0.979252
vt 0.264218 0.979252
vt 0.388685 0.638735
vt 0.619138 0.680209
vt 0.264218 0.638735
vt 0.542320 0.638735
vt 0.347189 0.979252
vt 0.465502 0.979252
vt 0.654459 0.638735
vt 0.465502 0.638735
vt 0.347189 0.638735
vt 0.542320 0.680209
vt 0.424006 0.979252
vt 0.305714 0.979252
vt 0.305714 0.638735
vt 0.424006 0.638735
vt 0.654459 0.680209
vt 0.784774 0.020748
vt 0.181248 0.638735
vt 0.743279 0.020748
vt 0.743279 0.597239
vt 0.020748 0.638735
vt 0.784774 0.597239
vt 0.361265 0.597239
vt 0.844276 0.020748
vt 0.121746 0.638735
vt 0.885772 0.020748
vt 0.020748 0.597239
vt 0.121746 0.979252
vt 0.945275 0.597239
vt 0.020748 0.979252
vt 0.402761 0.597239
vt 0.885772 0.597239
vt 0.080250 0.979252
vt 0.020748 0.020748
vt 0.080250 0.638735
vt 0.844276 0.597239
vt 0.361265 0.020748
vt 0.945275 0.020748
vt 0.402761 0.020748
vt 0.181248 0.979252
s 0
usemtl Material
f 3/7/1 5/13/1 1/1/1
f 8/23/2 3/8/2 4/10/2
f 6/18/3 7/21/3 8/22/3
f 8/24/4 2/5/4 6/16/4
f 4/12/5 1/2/5 2/4/5
f 2/6/6 5/15/6 6/17/6
f 16/46/4 14/40/4 12/34/4
f 14/41/6 10/29/6 15/43/6
f 13/39/5 9/27/5 10/28/5
f 11/32/1 10/30/1 9/25/1
f 12/35/3 15/45/3 11/31/3
f 16/48/2 11/33/2 9/26/2
f 3/7/1 7/19/1 5/13/1
f 8/23/2 7/20/2 3/8/2
f 6/18/3 5/14/3 7/21/3
f 8/24/4 4/11/4 2/5/4
f 4/12/5 3/9/5 1/2/5
f 2/6/6 1/3/6 5/15/6
f 16/46/4 13/37/4 14/40/4
f 14/41/6 13/38/6 10/29/6
f 13/39/5 16/47/5 9/27/5
f 11/32/1 15/44/1 10/30/1
f 12/35/3 14/42/3 15/45/3
f 16/48/2 12/36/2 11/33/2
